<svg width="2038" height="305" viewBox="0 0 2038 305" fill="none" xmlns="http://www.w3.org/2000/svg">
<path d="M905.128 107.964C905.128 20.6028 963.954 -0.00130463 1062.82 -0.00130463H1191.84C1348.05 -0.00130463 1368.32 28.0203 1367.33 112.497H1257.59V104.256C1257.59 82.8273 1238.8 76.6461 1206.18 76.6461H1086.55C1028.71 76.6461 1017.84 99.3106 1017.84 136.398V168.54C1017.84 211.809 1028.71 228.292 1080.62 228.292H1197.77C1247.21 228.292 1262.04 224.172 1262.04 187.084H1371.78V215.106C1371.78 265.38 1350.03 304.94 1239.79 304.94H1062.82C963.954 304.94 905.128 284.336 905.128 196.974V107.964Z" fill="#E0E0E0"/>
<path d="M1381.1 3.29321H1549.66L1673.74 195.324L1797.89 3.29321H1966.45V301.7H1859.68V87.3581H1858.69L1714.84 301.641H1632.78L1488.93 87.3581H1487.94V301.641H1381.17V3.29321H1381.1Z" fill="#E0E0E0"/>
<path d="M12.1531 3.29321H430.427V77.4681H276.196V301.641H166.455V77.4681H12.1531V3.29321Z" fill="#E0E0E0"/>
<path d="M12.153 3.29321H0.0065918V77.2326H12.153V3.29321Z" fill="#E0E0E0"/>
<path d="M442.503 3.29321H430.357V77.2326H442.503V3.29321Z" fill="#E0E0E0"/>
<path d="M456.7 3.29321H830.485V74.9956H566.512V130.627H818.126V199.857H566.512V301.641H456.771V3.29321H456.7Z" fill="#E0E0E0"/>
<path d="M899.194 3.29321H791.429V74.9956H899.194V3.29321Z" fill="#E0E0E0"/>
<path d="M878.712 130.628H662.69V199.858H878.712V130.628Z" fill="#E0E0E0"/>
<path d="M2003.7 28.3996L2004.45 34.4171H2001.15L2000.64 29.4647C2000.55 28.4529 2000.27 27.734 1999.79 27.308C1999.31 26.882 1998.55 26.669 1997.5 26.669H1992.87V34.4171H1989.64V15.4594H1998.46C2000.36 15.4594 2001.81 15.9209 2002.82 16.844C2003.84 17.767 2004.34 19.0096 2004.34 20.5716C2004.34 21.7787 2004.04 22.7904 2003.44 23.607C2002.83 24.4058 2001.97 24.956 2000.85 25.2578C2002.54 25.6128 2003.49 26.6601 2003.7 28.3996ZM1992.87 23.9797H1997.47C1998.66 23.9797 1999.57 23.7135 2000.19 23.181C2000.83 22.6484 2001.15 21.9118 2001.15 20.971C2001.15 20.1012 2000.87 19.4267 2000.32 18.9474C1999.79 18.4504 1999 18.2019 1997.95 18.2019H1992.87V23.9797Z" fill="#DEDEDE"/>
<path d="M2017.23 25.3094C2017.23 36.4204 2008.22 45.4275 1997.11 45.4275C1986 45.4275 1976.99 36.4204 1976.99 25.3094C1976.99 14.1984 1986 5.19131 1997.11 5.19131C2008.22 5.19131 2017.23 14.1984 2017.23 25.3094Z" stroke="#DEDEDE" stroke-width="2.36675"/>
</svg>
