<svg width="735" height="114" viewBox="0 0 735 114" fill="none" xmlns="http://www.w3.org/2000/svg">
<g clip-path="url(#clip0_234_265)">
<path d="M338.31 40.3539C338.31 7.70073 360.297 -0.000488281 397.251 -0.000488281H445.475C503.861 -0.000488281 511.436 10.4732 511.067 42.0482H470.049V38.9677C470.049 30.9584 463.027 28.648 450.833 28.648H406.119C384.502 28.648 380.437 37.1194 380.437 50.9816V62.9955C380.437 79.168 384.502 85.329 403.902 85.329H447.692C466.169 85.329 471.712 83.7887 471.712 69.9266H512.73V80.4002C512.73 99.1912 504.6 113.978 463.397 113.978H397.251C360.297 113.978 338.31 106.276 338.31 73.6231V40.3539Z" fill="#E0E0E0"/>
<path d="M516.213 1.2309H579.218L625.595 73.0062L671.997 1.2309H735.003V112.767H695.093V32.6519H694.724L640.957 112.745H610.286L556.519 32.6519H556.149V112.745H516.24V1.2309H516.213Z" fill="#E0E0E0"/>
<path d="M4.54248 1.2309H160.881V28.9553H103.234V112.744H62.2159V28.9553H4.54248V1.2309Z" fill="#E0E0E0"/>
<path d="M4.54241 1.2309H0.00244141V28.8673H4.54241V1.2309Z" fill="#E0E0E0"/>
<path d="M165.395 1.2309H160.855V28.8673H165.395V1.2309Z" fill="#E0E0E0"/>
<path d="M170.701 1.2309H310.411V28.0311H211.745V48.8244H305.791V74.7005H211.745V112.744H170.727V1.2309H170.701Z" fill="#E0E0E0"/>
<path d="M336.092 1.2309H295.813V28.0311H336.092V1.2309Z" fill="#E0E0E0"/>
<path d="M328.437 48.825H247.694V74.701H328.437V48.825Z" fill="#E0E0E0"/>
</g>
<defs>
<clipPath id="clip0_234_265">
<rect width="735" height="114" fill="white"/>
</clipPath>
</defs>
</svg>
